# Blender3D v249 OBJ File: agm65.blend
# www.blender3d.org
v 3.830383 0.000000 -0.059635
v 3.830383 0.000000 0.059635
v 4.403347 -0.000000 -0.059635
v 3.830383 1.478798 -0.000000
v 4.403347 0.000000 0.059635
v 4.403348 1.478798 -0.000000
v -1.594933 -0.000000 0.075700
v -1.594933 0.000000 -0.075700
v 3.250519 -0.000000 0.075700
v -1.594933 0.549896 0.000000
v 3.250519 0.000000 -0.075700
v 3.250519 1.459889 -0.000000
v -1.594933 0.000000 -0.075700
v -1.594933 -0.000000 0.075700
v 3.250519 0.000001 -0.075700
v -1.594933 -0.549896 -0.000000
v 3.250519 0.000000 0.075700
v 3.250519 -1.459888 -0.000001
v 3.830383 0.000000 0.059635
v 3.830383 0.000000 -0.059635
v 4.403347 0.000001 0.059635
v 3.830383 -1.478798 -0.000001
v 4.403347 0.000000 -0.059635
v 4.403348 -1.478797 -0.000001
v 3.830383 -0.059635 0.000000
v 3.830383 0.059635 -0.000000
v 4.403347 -0.059635 0.000001
v 3.830383 -0.000000 -1.478798
v 4.403347 0.059635 0.000000
v 4.403348 -0.000000 -1.478798
v -1.594933 0.075700 0.000000
v -1.594933 -0.075700 -0.000000
v 3.250519 0.075700 0.000001
v -1.594933 -0.000000 -0.549896
v 3.250519 -0.075700 0.000000
v 3.250519 -0.000000 -1.459888
v -1.594933 -0.075700 -0.000000
v -1.594933 0.075700 0.000000
v 3.250519 -0.075700 -0.000001
v -1.594933 -0.000000 0.549896
v 3.250519 0.075700 -0.000000
v 3.250519 -0.000000 1.459888
v 3.830383 0.059635 -0.000000
v 3.830383 -0.059635 0.000000
v 4.403347 0.059635 -0.000001
v 3.830383 -0.000000 1.478798
v 4.403347 -0.059635 -0.000000
v 4.403348 -0.000000 1.478798
v -3.844645 -0.436275 -0.436275
v -3.844645 -0.616986 0.000000
v -3.844645 -0.436275 0.436275
v -3.844645 0.000000 0.616986
v -3.844646 0.436275 0.436275
v -3.844646 0.616986 -0.000000
v -3.844646 0.436275 -0.436275
v -3.844645 0.000000 -0.616986
v 3.391986 -0.436274 -0.436275
v 3.391986 -0.616986 -0.000000
v 3.391986 -0.436275 0.436275
v 3.391986 0.000000 0.616986
v 3.391986 0.436275 0.436275
v 3.391986 0.616986 -0.000000
v 3.391986 0.436274 -0.436275
v 3.391986 -0.000001 -0.616986
v 3.391986 0.000000 -0.000000
v -4.435071 0.000000 -0.592246
v -4.435071 0.418781 -0.418781
v -4.435071 0.592246 -0.000000
v -4.435071 0.418781 0.418781
v -4.435071 -0.000000 0.592246
v -4.435071 -0.418781 0.418781
v -4.435071 -0.592246 0.000000
v -4.435071 -0.418781 -0.418781
v -4.749965 -0.318308 -0.318308
v -4.749965 -0.450155 0.000000
v -4.749965 -0.318308 0.318308
v -4.749965 -0.000000 0.450155
v -4.749965 0.318308 0.318308
v -4.749965 0.450155 -0.000000
v -4.749965 0.318308 -0.318308
v -4.749965 0.000000 -0.450155
v -4.946773 -0.000000 0.000000
v -4.946773 -0.000000 -0.231697
v -4.946773 0.163834 -0.163834
v -4.946773 0.231697 -0.000000
v -4.946773 0.163834 0.163834
v -4.946773 -0.000000 0.231697
v -4.946773 -0.163834 0.163834
v -4.946773 -0.231697 0.000000
v -4.946773 -0.163834 -0.163834
v 3.579899 0.000000 -0.000000
v 3.579899 -0.000001 -0.616986
v 3.579899 0.436274 -0.436275
v 3.579899 0.616986 -0.000000
v 3.579899 0.436275 0.436275
v 3.579899 0.000000 0.616986
v 3.579899 -0.436275 0.436275
v 3.579899 -0.616985 -0.000000
v 3.579899 -0.436275 -0.436275
v 4.809007 -0.436274 -0.436275
v 4.809007 -0.616985 -0.000000
v 4.809007 -0.436275 0.436275
v 4.809007 0.000000 0.616986
v 4.809007 0.436275 0.436275
v 4.809007 0.616986 -0.000000
v 4.809007 0.436274 -0.436275
v 4.809007 -0.000001 -0.616986
v 4.986135 0.000000 -0.000000
v 4.986135 -0.000001 -0.560756
v 4.986135 0.396514 -0.396515
v 4.986135 0.560756 -0.000000
v 4.986135 0.396515 0.396514
v 4.986135 0.000000 0.560756
v 4.986135 -0.396514 0.396514
v 4.986135 -0.560756 -0.000000
v 4.986135 -0.396514 -0.396515
v 3.219944 -0.367809 -0.367809
v 3.219944 -0.520160 -0.000000
v 3.219944 -0.367809 0.367809
v 3.219944 0.000000 0.520161
v 3.219944 0.367809 0.367809
v 3.219944 0.520161 -0.000000
v 3.219944 0.367809 -0.367809
v 3.219944 0.000000 -0.520161
v 3.698821 -0.367809 -0.367809
v 3.698821 -0.520160 -0.000000
v 3.698821 -0.367809 0.367809
v 3.698821 0.000000 0.520161
v 3.698821 0.367809 0.367809
v 3.698821 0.520161 -0.000000
v 3.698821 0.367809 -0.367810
v 3.698821 -0.000000 -0.520161
vt 0.787955 0.946280
vt 0.787955 0.500000
vt 0.831183 0.946280
vt 0.831183 0.500000
vt 0.744207 0.940573
vt 0.744207 0.500000
vt 0.744207 0.059427
vt 0.787955 0.053720
vt 0.831183 0.053720
vt 0.754880 0.500000
vt 0.754880 0.631661
vt 0.754880 0.368339
vt 0.754880 0.313803
vt 0.754880 0.631662
vt 0.754880 0.686197
vt 0.125750 0.500000
vt 0.125750 0.549443
vt 0.125750 0.450557
vt 0.125750 0.430077
vt 0.125750 0.569923
vt 0.769057 0.500000
vt 0.769057 0.686197
vt 0.769057 0.631661
vt 0.769057 0.631662
vt 0.769057 0.368339
vt 0.769057 0.313803
vt 0.875153 0.669228
vt 0.875153 0.500000
vt 0.875153 0.619663
vt 0.875153 0.380338
vt 0.875153 0.330772
vt 0.741900 0.656977
vt 0.778029 0.656977
vt 0.741900 0.610999
vt 0.778029 0.611000
vt 0.741900 0.500000
vt 0.778029 0.500000
vt 0.741900 0.389001
vt 0.778029 0.389001
vt 0.741900 0.343023
vt 0.778029 0.343023
vt 0.861789 0.631661
vt 0.861789 0.500000
vt 0.861789 0.368339
vt 0.861789 0.313803
vt 0.861789 0.631662
vt 0.861789 0.686197
vt 0.140599 0.596061
vt 0.140599 0.500000
vt 0.140599 0.403939
vt 0.140599 0.364150
vt 0.140599 0.635850
vt 0.164356 0.678731
vt 0.164356 0.626382
vt 0.164356 0.500000
vt 0.164356 0.373618
vt 0.164356 0.321269
vt 0.208902 0.631661
vt 0.208902 0.500000
vt 0.208902 0.368339
vt 0.208902 0.313803
vt 0.208902 0.686197
vt 0.378635 0.334049
vt 0.378635 0.500000
vt 0.378635 0.665951
vn -1.000000 0.000000 0.000000
vn 1.000000 -0.000000 0.000000
vn 0.581500 -0.805872 -0.111240
vn 0.581500 -0.491165 -0.648518
vn 0.581500 -0.648518 0.491165
vn 0.581500 -0.111240 0.805872
vn 0.581500 0.491165 0.648518
vn 0.581500 0.805872 0.111240
vn 0.581500 0.648518 -0.491165
vn 0.581500 0.111240 -0.805872
vn -0.904691 -0.257210 -0.339610
vn -0.904691 -0.422040 -0.058260
vn -0.904691 -0.339610 0.257210
vn -0.904691 -0.058260 0.422040
vn -0.904691 0.257210 0.339610
vn -0.904691 0.422040 0.058260
vn -0.904691 0.339610 -0.257210
vn -0.904691 0.058260 -0.422040
vn -0.581500 -0.111240 -0.805872
vn -0.581500 -0.648518 -0.491165
vn -0.581500 0.491165 -0.648518
vn -0.581500 0.805872 -0.111240
vn -0.581500 0.648518 0.491165
vn -0.581500 0.111240 0.805872
vn -0.581500 -0.491165 0.648518
vn -0.581500 -0.805872 0.111240
vn 0.727195 0.093875 -0.679952
vn 0.727195 -0.414411 -0.547197
vn 0.727195 0.547197 -0.414411
vn 0.727195 0.679952 0.093875
vn 0.727195 0.414411 0.547197
vn 0.727195 -0.093875 0.679952
vn 0.727195 -0.547197 0.414411
vn 0.727195 -0.679952 -0.093875
vn 0.000000 0.136753 -0.990600
vn 0.000000 -0.136753 -0.990600
vn 0.000000 -0.707083 -0.707083
vn 0.000000 0.797174 -0.603748
vn 0.000000 0.603717 -0.797174
vn 0.000000 0.990600 0.136753
vn 0.000000 0.990600 -0.136753
vn 0.000000 0.707083 0.707083
vn 0.000000 0.136753 0.990600
vn 0.000000 -0.136753 0.990600
vn 0.000000 -0.603748 0.797174
vn 0.000000 -0.797174 0.603748
vn 0.000000 -0.990600 0.136753
vn 0.000000 -0.990600 -0.136753
vn 0.153600 -0.696707 -0.700674
vn 0.153600 -0.988098 -0.002808
vn 0.153600 -0.700674 0.696707
vn 0.153600 -0.002808 0.988098
vn 0.153600 0.696707 0.700674
vn 0.153600 0.988098 0.002808
vn 0.153600 0.700674 -0.696707
vn 0.153600 0.002808 -0.988098
vn -0.592120 -0.558794 -0.580615
vn -0.592120 -0.805689 -0.015412
vn -0.592120 -0.580615 0.558794
vn -0.592120 -0.015412 0.805689
vn -0.592120 0.558794 0.580615
vn -0.592120 0.805689 0.015412
vn -0.592120 0.580615 -0.558794
vn -0.592120 0.015412 -0.805689
vn -0.231941 0.005310 -0.972686
vn -0.231941 -0.684042 -0.691549
vn -0.231941 0.691580 -0.684042
vn -0.231941 0.972686 0.005310
vn -0.231941 0.684042 0.691549
vn -0.231941 -0.005310 0.972686
vn -0.231941 -0.691580 0.684042
vn -0.231941 -0.972686 -0.005310
vn -0.020722 -0.796991 -0.603595
vn -0.020722 -0.990387 0.136723
vn -0.020722 -0.603595 0.796991
vn -0.020722 0.136723 0.990387
vn -0.020722 0.796991 0.603595
vn -0.020722 0.990387 -0.136723
vn -0.020722 0.603595 -0.796991
vn -0.020722 -0.136723 -0.990387
vn -0.000000 0.999188 -0.040294
vn -0.000000 -0.999188 -0.040294
vn -0.009725 0.998611 0.051781
vn 0.000000 0.990657 0.136376
vn -0.009725 -0.998611 0.051781
vn 0.000000 -0.990657 0.136376
vn -0.009725 -0.998611 -0.051781
vn 0.000000 -0.990657 -0.136376
vn -0.009725 0.998611 -0.051781
vn 0.000000 0.990657 -0.136376
vn -0.000000 -0.999188 0.040294
vn -0.000000 0.999188 0.040294
vn 0.000000 0.040294 0.999188
vn -0.000000 0.040294 -0.999188
vn -0.009725 -0.051782 0.998611
vn 0.000000 -0.136377 0.990657
vn -0.009725 -0.051781 -0.998611
vn -0.000000 -0.136376 -0.990657
vn -0.009725 0.051781 -0.998611
vn -0.000000 0.136376 -0.990657
vn -0.009725 0.051781 0.998611
vn 0.000000 0.136376 0.990657
vn -0.000000 -0.040294 -0.999188
vn 0.000000 -0.040294 0.999188
usemtl Material.002_skin
s off
f 4/1/1 1/2/1 2/2/1
f 6/3/2 5/4/2 3/4/2
f 12/5/2 9/6/2 11/6/2
f 18/7/2 15/6/2 17/6/2
f 22/8/1 19/2/1 20/2/1
f 24/9/2 23/4/2 21/4/2
usemtl Material.001_skin
f 28/1/1 25/2/1 26/2/1
f 30/3/2 29/4/2 27/4/2
f 36/5/2 33/6/2 35/6/2
f 42/7/2 39/6/2 41/6/2
f 46/8/1 43/2/1 44/2/1
f 48/9/2 47/4/2 45/4/2
usemtl Material_skin
s 1
f 65/10/2 58/10/3 57/11/4
f 65/10/2 59/12/5 58/10/3
f 65/10/2 60/13/6 59/12/5
f 65/10/2 61/12/7 60/13/6
f 65/10/2 62/10/8 61/12/7
f 65/10/2 63/14/9 62/10/8
f 65/10/2 64/15/10 63/14/9
f 65/10/2 57/11/4 64/15/10
f 82/16/1 90/17/11 89/16/12
f 82/16/1 89/16/12 88/18/13
f 82/16/1 88/18/13 87/19/14
f 82/16/1 87/19/14 86/18/15
f 82/16/1 86/18/15 85/16/16
f 82/16/1 85/16/16 84/17/17
f 82/16/1 84/17/17 83/20/18
f 83/20/18 90/17/11 82/16/1
f 91/21/1 92/22/19 99/23/20
f 91/21/1 93/24/21 92/22/19
f 91/21/1 94/21/22 93/24/21
f 91/21/1 95/25/23 94/21/22
f 91/21/1 96/26/24 95/25/23
f 91/21/1 97/25/25 96/26/24
f 91/21/1 98/21/26 97/25/25
f 91/21/1 99/23/20 98/21/26
f 109/27/27 108/28/2 116/29/28
f 110/29/29 108/28/2 109/27/27
f 111/28/30 108/28/2 110/29/29
f 112/30/31 108/28/2 111/28/30
f 113/31/32 108/28/2 112/30/31
f 114/30/33 108/28/2 113/31/32
f 115/28/34 108/28/2 114/30/33
f 116/29/28 108/28/2 115/28/34
f 124/32/35 132/33/36 117/34/37
f 132/33/36 125/35/37 117/34/37
f 123/34/38 131/35/39 124/32/35
f 131/35/39 132/33/36 124/32/35
f 122/36/40 130/37/41 123/34/38
f 130/37/41 131/35/39 123/34/38
f 121/38/42 129/39/42 122/36/40
f 129/39/42 130/37/41 122/36/40
f 120/40/43 128/41/44 129/39/42
f 120/40/43 129/39/42 121/38/42
f 119/38/45 127/39/46 128/41/44
f 119/38/45 128/41/44 120/40/43
f 118/36/47 126/37/48 127/39/46
f 118/36/47 127/39/46 119/38/45
f 117/34/37 125/35/37 126/37/48
f 117/34/37 126/37/48 118/36/47
f 100/42/49 116/29/28 115/28/34
f 100/42/49 115/28/34 101/43/50
f 101/43/50 115/28/34 114/30/33
f 101/43/50 114/30/33 102/44/51
f 102/44/51 114/30/33 113/31/32
f 102/44/51 113/31/32 103/45/52
f 103/45/52 113/31/32 112/30/31
f 103/45/52 112/30/31 104/44/53
f 104/44/53 112/30/31 111/28/30
f 104/44/53 111/28/30 105/43/54
f 105/43/54 111/28/30 110/29/29
f 105/43/54 110/29/29 106/46/55
f 106/46/55 110/29/29 109/27/27
f 106/46/55 109/27/27 107/47/56
f 107/47/56 109/27/27 116/29/28
f 107/47/56 116/29/28 100/42/49
f 92/22/19 107/47/56 100/42/49
f 92/22/19 100/42/49 99/23/20
f 93/24/21 106/46/55 107/47/56
f 93/24/21 107/47/56 92/22/19
f 94/21/22 105/43/54 106/46/55
f 94/21/22 106/46/55 93/24/21
f 95/25/23 104/44/53 105/43/54
f 95/25/23 105/43/54 94/21/22
f 96/26/24 103/45/52 104/44/53
f 96/26/24 104/44/53 95/25/23
f 97/25/25 102/44/51 103/45/52
f 97/25/25 103/45/52 96/26/24
f 98/21/26 101/43/50 102/44/51
f 98/21/26 102/44/51 97/25/25
f 99/23/20 100/42/49 101/43/50
f 99/23/20 101/43/50 98/21/26
f 74/48/57 75/49/58 89/16/12
f 74/48/57 89/16/12 90/17/11
f 75/49/58 76/50/59 88/18/13
f 75/49/58 88/18/13 89/16/12
f 76/50/59 77/51/60 87/19/14
f 76/50/59 87/19/14 88/18/13
f 77/51/60 78/50/61 86/18/15
f 77/51/60 86/18/15 87/19/14
f 78/50/61 79/49/62 85/16/16
f 78/50/61 85/16/16 86/18/15
f 79/49/62 80/48/63 84/17/17
f 79/49/62 84/17/17 85/16/16
f 80/48/63 81/52/64 83/20/18
f 80/48/63 83/20/18 84/17/17
f 81/52/64 74/48/57 90/17/11
f 81/52/64 90/17/11 83/20/18
f 66/53/65 73/54/66 74/48/57
f 66/53/65 74/48/57 81/52/64
f 67/54/67 66/53/65 81/52/64
f 67/54/67 81/52/64 80/48/63
f 68/55/68 67/54/67 80/48/63
f 68/55/68 80/48/63 79/49/62
f 69/56/69 68/55/68 79/49/62
f 69/56/69 79/49/62 78/50/61
f 70/57/70 69/56/69 78/50/61
f 70/57/70 78/50/61 77/51/60
f 71/56/71 70/57/70 77/51/60
f 71/56/71 77/51/60 76/50/59
f 72/55/72 71/56/71 76/50/59
f 72/55/72 76/50/59 75/49/58
f 73/54/66 72/55/72 75/49/58
f 73/54/66 75/49/58 74/48/57
f 49/58/73 50/59/74 72/55/72
f 49/58/73 72/55/72 73/54/66
f 50/59/74 51/60/75 71/56/71
f 50/59/74 71/56/71 72/55/72
f 51/60/75 52/61/76 70/57/70
f 51/60/75 70/57/70 71/56/71
f 52/61/76 53/60/77 69/56/69
f 52/61/76 69/56/69 70/57/70
f 53/60/77 54/59/78 68/55/68
f 53/60/77 68/55/68 69/56/69
f 54/59/78 55/58/79 67/54/67
f 54/59/78 67/54/67 68/55/68
f 55/58/79 56/62/80 66/53/65
f 55/58/79 66/53/65 67/54/67
f 56/62/80 49/58/73 73/54/66
f 56/62/80 73/54/66 66/53/65
f 57/11/4 49/58/73 56/62/80
f 57/11/4 56/62/80 64/15/10
f 55/58/79 63/14/9 64/15/10
f 55/58/79 64/15/10 56/62/80
f 54/59/78 62/10/8 63/14/9
f 54/59/78 63/14/9 55/58/79
f 53/60/77 61/12/7 62/10/8
f 53/60/77 62/10/8 54/59/78
f 52/61/76 60/13/6 61/12/7
f 52/61/76 61/12/7 53/60/77
f 51/60/75 59/12/5 60/13/6
f 51/60/75 60/13/6 52/61/76
f 50/59/74 58/10/3 59/12/5
f 50/59/74 59/12/5 51/60/75
f 49/58/73 57/11/4 58/10/3
f 49/58/73 58/10/3 50/59/74
usemtl Material.001_skin
s off
f 48/9/81 47/4/81 44/2/81
f 48/9/81 44/2/81 46/8/81
f 48/9/82 46/8/82 43/2/82
f 48/9/82 43/2/82 45/4/82
f 42/7/83 41/6/83 40/63/83
f 41/6/84 38/64/84 40/63/84
f 42/7/85 40/63/85 39/6/85
f 40/63/86 37/64/86 39/6/86
f 36/5/87 35/6/87 34/65/87
f 35/6/88 32/64/88 34/65/88
f 36/5/89 34/65/89 33/6/89
f 34/65/90 31/64/90 33/6/90
f 30/3/91 29/4/91 26/2/91
f 30/3/91 26/2/91 28/1/91
f 25/2/92 27/4/92 30/3/92
f 25/2/92 30/3/92 28/1/92
usemtl Material.002_skin
f 24/9/93 23/4/93 20/2/93
f 24/9/93 20/2/93 22/8/93
f 24/9/94 22/8/94 19/2/94
f 24/9/94 19/2/94 21/4/94
f 18/7/95 17/6/95 16/63/95
f 17/6/96 14/64/96 16/63/96
f 18/7/97 16/63/97 15/6/97
f 16/63/98 13/64/98 15/6/98
f 12/5/99 11/6/99 10/65/99
f 11/6/100 8/64/100 10/65/100
f 12/5/101 10/65/101 9/6/101
f 10/65/102 7/64/102 9/6/102
f 6/3/103 5/4/103 2/2/103
f 6/3/103 2/2/103 4/1/103
f 1/2/104 3/4/104 6/3/104
f 1/2/104 6/3/104 4/1/104
